<?xml version="1.0" encoding="utf-8"?>
<!-- Generator: Adobe Illustrator 17.0.0, SVG Export Plug-In . SVG Version: 6.00 Build 0)  -->
<!DOCTYPE svg PUBLIC "-//W3C//DTD SVG 1.1//EN" "http://www.w3.org/Graphics/SVG/1.1/DTD/svg11.dtd">
<svg version="1.1" id="Layer_1" xmlns="http://www.w3.org/2000/svg" xmlns:xlink="http://www.w3.org/1999/xlink" x="0px" y="0px"
	 width="44px" height="44.599px" viewBox="0 0 44 44.599" enable-background="new 0 0 44 44.599" xml:space="preserve">
<g>
	<path fill="#FFFFFF" d="M37.452,10.738c0,6.437,0,12.874,0,19.311c-0.024,0.054-0.061,0.105-0.07,0.161
		c-0.131,0.813-0.47,1.535-0.992,2.163c-1.176,1.416-2.723,2.042-4.533,2.052c-2.303,0.013-4.607,0.007-6.91-0.003
		c-0.251-0.001-0.388,0.078-0.512,0.294c-1.825,3.176-3.658,6.347-5.49,9.519c-0.063,0.109-0.132,0.215-0.222,0.362
		c-0.1-0.168-0.169-0.281-0.235-0.395c-1.82-3.15-3.644-6.299-5.455-9.455c-0.14-0.244-0.286-0.329-0.567-0.327
		c-2.303,0.013-4.607,0.026-6.91,0.001c-2.027-0.022-3.714-0.782-4.822-2.532C0.388,31.342,0.24,30.667,0,30.05
		c0-6.437,0-12.874,0-19.311c0.021-0.044,0.052-0.086,0.06-0.132C0.458,8.549,1.748,7.3,3.673,6.636
		c0.351-0.121,0.72-0.192,1.081-0.286c9.314,0,18.628,0,27.943,0c0.089,0.026,0.178,0.059,0.269,0.077
		c1.973,0.397,3.448,1.424,4.205,3.344C37.294,10.082,37.36,10.416,37.452,10.738z M18.723,39.055
		c0.092-0.15,0.162-0.26,0.227-0.372c1.291-2.234,2.587-4.466,3.866-6.706c0.141-0.246,0.291-0.324,0.568-0.323
		c2.755,0.011,5.51,0.009,8.265,0.004c0.303-0.001,0.611-0.017,0.909-0.071c1.117-0.2,2.167-1.011,2.137-2.489
		c-0.055-2.705-0.016-5.412-0.016-8.118c0-3.157-0.006-6.314,0.004-9.472c0.003-0.832-0.346-1.45-1.026-1.898
		c-0.58-0.383-1.228-0.493-1.913-0.492C23.065,9.122,14.386,9.12,5.706,9.12c-0.146,0-0.293,0.001-0.439,0.008
		c-1.53,0.069-2.497,1.074-2.497,2.597c0,1.426,0,2.852,0,4.279c0,4.413,0.005,8.826-0.005,13.238
		c-0.002,0.863,0.361,1.493,1.074,1.946c0.576,0.366,1.219,0.471,1.886,0.471c2.791,0.002,5.583,0.004,8.374-0.005
		c0.25-0.001,0.387,0.074,0.512,0.292c1.288,2.25,2.587,4.494,3.883,6.739C18.559,38.797,18.63,38.905,18.723,39.055z"/>
	<path fill="#FFFFFF" d="M34.364,5.536c-0.039,0.054-0.097,0.162-0.18,0.244c-5.194,5.198-10.392,10.393-15.582,15.596
		c-0.166,0.166-0.301,0.391-0.376,0.614c-0.633,1.867-1.249,3.741-1.883,5.652c0.109-0.024,0.19-0.036,0.267-0.061
		c1.845-0.609,3.689-1.219,5.531-1.835c0.135-0.045,0.272-0.124,0.372-0.224c5.284-5.277,10.564-10.557,15.844-15.838
		c0.035-0.035,0.066-0.072,0.074-0.08C37.087,8.26,35.75,6.923,34.364,5.536z"/>
	<path fill="#FFFFFF" d="M37.251,2.901c1.26,1.259,2.587,2.585,3.929,3.926c-0.014,0.002,0.011,0.007,0.021-0.004
		c0.716-0.723,1.466-1.417,2.137-2.18c0.958-1.088,0.854-2.76-0.176-3.796c-1.028-1.033-2.715-1.155-3.791-0.185
		C38.611,1.35,37.954,2.151,37.251,2.901z"/>
	<rect x="4.629" y="11.857" fill="#FFFFFF" width="27.519" height="0.942"/>
	<rect x="4.629" y="15.567" fill="#FFFFFF" width="27.519" height="0.942"/>
	<rect x="4.629" y="19.278" fill="#FFFFFF" width="27.519" height="0.942"/>
	<rect x="4.629" y="22.989" fill="#FFFFFF" width="27.519" height="0.942"/>
	<rect x="4.629" y="26.7" fill="#FFFFFF" width="11.714" height="0.942"/>
</g>
</svg>
