<?xml version="1.0" encoding="utf-8"?>
<!-- Generator: Adobe Illustrator 17.0.0, SVG Export Plug-In . SVG Version: 6.00 Build 0)  -->
<!DOCTYPE svg PUBLIC "-//W3C//DTD SVG 1.1//EN" "http://www.w3.org/Graphics/SVG/1.1/DTD/svg11.dtd">
<svg version="1.1" id="Layer_1" xmlns="http://www.w3.org/2000/svg" xmlns:xlink="http://www.w3.org/1999/xlink" x="0px" y="0px"
	 width="47.691px" height="46.657px" viewBox="0 0 47.691 46.657" enable-background="new 0 0 47.691 46.657" xml:space="preserve">
<g>
	<path fill="#FFFFFF" d="M6.495,41.487c0-11.349,0-22.646,0-34.022c1.636,0,3.238,0,4.948,0c0-0.389,0.008-0.702-0.001-1.013
		c-0.109-3.498,0.183-4.166,4.026-3.996c0.619,0.027,1.24-0.005,1.859,0.007c1.339,0.025,2.101,0.788,2.128,2.138
		c0.016,0.768,0.023,1.538-0.003,2.305c-0.014,0.429,0.156,0.555,0.565,0.554c4.314-0.009,8.628-0.009,12.942,0
		c0.412,0.001,0.576-0.133,0.563-0.558c-0.024-0.768-0.02-1.537-0.001-2.305c0.032-1.353,0.793-2.117,2.133-2.134
		c1.239-0.015,2.479-0.015,3.719,0c1.31,0.016,2.069,0.747,2.145,2.058c0.027,0.47,0.009,0.942,0.01,1.413
		c0.001,0.467,0,0.934,0,1.503c1.681,0,3.302,0,4.958,0c0,11.4,0,22.697,0,34.049C33.172,41.487,19.872,41.487,6.495,41.487z
		 M9.477,38.461c11.384,0,22.696,0,34.004,0c0-7.681,0-15.303,0-22.933c-11.361,0-22.673,0-34.004,0
		C9.477,23.194,9.477,30.8,9.477,38.461z M13.472,7.474c-0.001,0-0.003,0-0.004,0c0,0.42-0.007,0.84,0.001,1.26
		c0.025,1.19,0.614,1.728,1.898,1.746c1.411,0.02,2.06-0.492,2.106-1.698c0.026-0.691-0.027-1.386,0.012-2.076
		c0.113-1.993-0.917-2.444-2.659-2.217c-0.86,0.112-1.305,0.636-1.35,1.501C13.451,6.485,13.472,6.98,13.472,7.474z M39.516,7.514
		c0-0.445,0.009-0.89-0.002-1.334c-0.028-1.181-0.627-1.721-1.911-1.736c-1.414-0.017-2.06,0.495-2.096,1.706
		c-0.026,0.864-0.023,1.73-0.001,2.595c0.03,1.223,0.669,1.749,2.066,1.738c1.327-0.011,1.92-0.553,1.943-1.781
		C39.523,8.305,39.517,7.91,39.516,7.514z"/>
	<path fill="#FFFFFF" d="M4.463,43.501c0-11.337,0-22.632,0-33.996C4.764,9.491,5.05,9.479,5.407,9.463c0,11.004,0,21.975,0,33.05
		c13.065,0,26.06,0,39.096,0c0,0.387,0,0.669,0,0.988C31.147,43.501,17.824,43.501,4.463,43.501z"/>
	<path fill="#FFFFFF" d="M2.486,11.506c0.33,0,0.592,0,0.939,0c0,11.007,0,21.975,0,33.034c13.056,0,26.027,0,39.041,0
		c0,0.352,0,0.613,0,0.938c-13.313,0-26.627,0-39.98,0C2.486,34.161,2.486,22.869,2.486,11.506z"/>
	<path fill="#FFFFFF" d="M33.465,36.515c-2.003,0-3.932,0-5.922,0c0-1.641,0-3.261,0-4.945c1.945,0,3.908,0,5.922,0
		C33.465,33.195,33.465,34.816,33.465,36.515z M28.549,32.562c0,1.014,0,1.964,0,2.894c1.347,0,2.642,0,3.923,0
		c0-0.996,0-1.928,0-2.894C31.154,32.562,29.877,32.562,28.549,32.562z"/>
	<path fill="#FFFFFF" d="M25.458,31.563c0,1.647,0,3.268,0,4.932c-1.989,0-3.936,0-5.941,0c0-1.632,0-3.254,0-4.932
		C21.487,31.563,23.45,31.563,25.458,31.563z M24.456,32.566c-1.359,0-2.636,0-3.941,0c0,0.99,0,1.94,0,2.901
		c1.339,0,2.633,0,3.941,0C24.456,34.48,24.456,33.548,24.456,32.566z"/>
	<path fill="#FFFFFF" d="M11.479,36.496c0-1.678,0-3.28,0-4.936c1.979,0,3.924,0,5.934,0c0,1.618,0,3.257,0,4.936
		C15.447,36.496,13.5,36.496,11.479,36.496z M12.508,32.556c0,1.035,0,1.983,0,2.921c1.337,0,2.613,0,3.906,0
		c0-0.993,0-1.942,0-2.921C15.094,32.556,13.818,32.556,12.508,32.556z"/>
	<path fill="#FFFFFF" d="M35.546,24.52c2.004,0,3.932,0,5.922,0c0,1.657,0,3.294,0,4.963c-1.991,0-3.934,0-5.922,0
		C35.546,27.824,35.546,26.204,35.546,24.52z M40.481,28.492c0-1.024,0-1.971,0-2.913c-1.344,0-2.635,0-3.896,0
		c0,1.011,0,1.959,0,2.913C37.904,28.492,39.16,28.492,40.481,28.492z"/>
	<path fill="#FFFFFF" d="M33.461,29.478c-2.009,0-3.953,0-5.938,0c0-1.665,0-3.284,0-4.941c1.988,0,3.936,0,5.938,0
		C33.461,26.163,33.461,27.783,33.461,29.478z M32.476,25.572c-1.348,0-2.642,0-3.922,0c0,1.006,0,1.955,0,2.899
		c1.334,0,2.61,0,3.922,0C32.476,27.5,32.476,26.569,32.476,25.572z"/>
	<path fill="#FFFFFF" d="M25.469,24.539c0,1.661,0,3.263,0,4.925c-1.986,0-3.949,0-5.961,0c0-1.646,0-3.266,0-4.925
		C21.491,24.539,23.439,24.539,25.469,24.539z M20.531,25.548c0,1.032,0,1.981,0,2.924c1.335,0,2.612,0,3.912,0
		c0-0.992,0-1.942,0-2.924C23.122,25.548,21.845,25.548,20.531,25.548z"/>
	<path fill="#FFFFFF" d="M17.449,24.538c0,1.663,0,3.265,0,4.927c-1.982,0-3.945,0-5.956,0c0-1.649,0-3.269,0-4.927
		C13.475,24.538,15.422,24.538,17.449,24.538z M16.414,28.495c0-1.018,0-1.967,0-2.918c-1.337,0-2.628,0-3.906,0
		c0,1.009,0,1.956,0,2.918C13.826,28.495,15.083,28.495,16.414,28.495z"/>
	<path fill="#FFFFFF" d="M35.532,17.516c2.009,0,3.938,0,5.932,0c0,1.637,0,3.254,0,4.927c-1.974,0-3.939,0-5.932,0
		C35.532,20.798,35.532,19.195,35.532,17.516z M40.491,18.55c-1.33,0-2.619,0-3.918,0c0,0.999,0,1.946,0,2.89
		c1.341,0,2.63,0,3.918,0C40.491,20.446,40.491,19.517,40.491,18.55z"/>
	<path fill="#FFFFFF" d="M27.516,17.538c2.025,0,3.973,0,5.96,0c0,1.645,0,3.245,0,4.904c-1.994,0-3.96,0-5.96,0
		C27.516,20.799,27.516,19.198,27.516,17.538z M28.545,18.543c0,1,0,1.948,0,2.9c1.342,0,2.635,0,3.929,0c0-0.992,0-1.923,0-2.9
		C31.162,18.543,29.886,18.543,28.545,18.543z"/>
	<path fill="#FFFFFF" d="M19.499,22.448c0-1.648,0-3.244,0-4.897c1.982,0,3.943,0,5.953,0c0,1.622,0,3.237,0,4.897
		C23.462,22.448,21.499,22.448,19.499,22.448z M24.454,18.541c-1.354,0-2.63,0-3.937,0c0,0.993,0,1.942,0,2.908
		c1.339,0,2.632,0,3.937,0C24.454,20.461,24.454,19.529,24.454,18.541z"/>
	<path fill="#FFFFFF" d="M35.531,36.499c0-1.681,0-3.285,0-4.941c1.972,0,3.917,0,5.93,0c0,1.625,0,3.264,0,4.941
		C39.491,36.499,37.546,36.499,35.531,36.499z M36.553,35.477c1.358,0,2.632,0,3.933,0c0-0.992,0-1.94,0-2.896
		c-1.34,0-2.633,0-3.933,0C36.553,33.567,36.553,34.498,36.553,35.477z"/>
</g>
</svg>
