<?xml version="1.0" encoding="utf-8"?>
<!-- Generator: Adobe Illustrator 17.0.0, SVG Export Plug-In . SVG Version: 6.00 Build 0)  -->
<!DOCTYPE svg PUBLIC "-//W3C//DTD SVG 1.1//EN" "http://www.w3.org/Graphics/SVG/1.1/DTD/svg11.dtd">
<svg version="1.1" id="Layer_1" xmlns="http://www.w3.org/2000/svg" xmlns:xlink="http://www.w3.org/1999/xlink" x="0px" y="0px"
	 width="44px" height="21.974px" viewBox="0 0 44 21.974" enable-background="new 0 0 44 21.974" xml:space="preserve">
<path fill="#B6B6B7" d="M0,10.986c0,6.069,4.919,10.988,10.988,10.988c6.067,0,10.986-4.919,10.986-10.988
	C21.974,4.92,17.054,0,10.988,0C4.919,0,0,4.92,0,10.986z M11.541,10.986c0,2.295-1.861,4.154-4.154,4.154
	c-2.294,0-4.154-1.859-4.154-4.154c0-2.293,1.859-4.152,4.154-4.152C9.681,6.834,11.541,8.694,11.541,10.986z"/>
<path fill="#B6B6B7" d="M23.26,7.4h16.723c0.531,0,0.961,0.431,0.961,0.96c0,0.532-0.43,0.962-0.961,0.962h-16.36
	c0.076,0.545,0.117,1.099,0.117,1.664c0,2.146-0.564,4.161-1.55,5.904h3.051l3.746-4.428c0.062-0.073,0.155-0.115,0.249-0.115
	c0.098,0,0.191,0.042,0.253,0.115l3.746,4.428h0.237l3.651-4.314c0.062-0.074,0.155-0.114,0.249-0.114
	c0.098,0,0.19,0.041,0.253,0.114l3.65,4.314h2.046c0.374,0,0.678-0.304,0.678-0.678V5.762c0-0.375-0.304-0.678-0.678-0.678H22.191
	c0.413,0.729,0.746,1.508,1,2.323C23.215,7.405,23.237,7.4,23.26,7.4z"/>
</svg>
