<?xml version="1.0" encoding="utf-8"?>
<!-- Generator: Adobe Illustrator 17.0.0, SVG Export Plug-In . SVG Version: 6.00 Build 0)  -->
<!DOCTYPE svg PUBLIC "-//W3C//DTD SVG 1.1//EN" "http://www.w3.org/Graphics/SVG/1.1/DTD/svg11.dtd">
<svg version="1.1" id="Layer_1" xmlns="http://www.w3.org/2000/svg" xmlns:xlink="http://www.w3.org/1999/xlink" x="0px" y="0px"
	 width="198.425px" height="47.9px" viewBox="0 0 198.425 47.9" enable-background="new 0 0 198.425 47.9" xml:space="preserve">
<g>
	<path fill="#FFFFFF" d="M33.416,5.513L33.36,6.256c-1.45,11.14-2.402,18.006-2.861,20.6c-0.763,4.272-1.144,7.522-1.144,9.754
		c0,2.23,0.952,3.348,2.859,3.348c1.602,0,3.034-1.155,4.293-3.462c1.257-2.308,2.212-5.177,2.859-8.612
		c1.337-7.171,2.002-13.368,2.002-18.594c0-2.44-0.21-4.558-0.628-6.351c1.525-0.915,3.357-1.373,5.492-1.373
		c2.137,0,3.206,1.26,3.206,3.776c0,3.93-0.613,9.899-1.832,17.908c-0.993,6.677-2.367,11.578-4.119,14.705
		c-0.801,1.337-1.716,2.614-2.747,3.835c-2.137,2.48-5.12,3.718-8.954,3.718s-6.57-1.639-8.211-4.919
		c-2.097,3.28-5.282,4.919-9.554,4.919c-2.747,0-4.873-0.789-6.38-2.373c-1.509-1.583-2.261-3.693-2.261-6.324
		c0-0.345,0.037-0.859,0.114-1.545l2.119-16.134c-4.084-2.937-6.123-6.237-6.123-9.899c0-2.326,0.801-4.176,2.402-5.55
		c1.602-1.371,3.548-2.058,5.837-2.058c4.996,0,7.494,2.48,7.494,7.439c0,0.077-0.009,0.169-0.028,0.285
		c-0.019,0.116-0.037,0.297-0.056,0.545c-0.021,0.249-0.058,0.536-0.116,0.859c-0.056,0.324-0.133,0.811-0.229,1.458
		c-0.096,0.65-0.2,1.364-0.314,2.146c-0.114,0.782-0.268,1.82-0.458,3.117c-0.191,1.297-0.391,2.701-0.601,4.207
		c-0.21,1.506-0.468,3.346-0.773,5.52c-0.305,2.175-0.57,4.026-0.801,5.55c-0.229,1.525-0.342,2.633-0.342,3.317
		c0,2.556,0.992,3.835,2.976,3.835c2.747,0,4.442-2.498,5.091-7.494l3.662-28.894c1.26-0.573,2.766-0.859,4.521-0.859
		C32.197,2.653,33.416,3.607,33.416,5.513z M7.498,6.201c-0.724,0-1.257,0.268-1.602,0.801c-0.342,0.533-0.514,1.144-0.514,1.83
		c0,1.718,0.954,3.49,2.861,5.323l0.287-2.288c0.152-1.26,0.237-2.52,0.256-3.776C8.807,6.829,8.375,6.201,7.498,6.201z"/>
	<path fill="#FFFFFF" d="M66.316,38.64l1.373-12.644c0-1.029-0.268-1.888-0.801-2.575c-0.536-0.687-1.393-1.029-2.575-1.029
		c-1.183,0-2.184,0.468-3.003,1.402c-0.821,0.936-1.422,2.165-1.803,3.69c-0.268,2.175-0.668,5.349-1.202,9.527
		c-0.536,4.176-0.878,6.894-1.031,8.153h-7.609C52.41,21.781,54.07,7.419,54.644,2.079c0.801-0.305,1.888-0.456,3.261-0.456
		c2.976,0,4.463,0.878,4.463,2.631v0.345c-0.65,5.988-1.337,11.251-2.061,15.792c2.021-1.832,4.309-2.747,6.865-2.747
		c2.554,0,4.577,0.65,6.065,1.946s2.23,2.936,2.23,4.919c0,0.536-0.114,1.528-0.342,2.976c-0.878,5.723-1.316,9.08-1.316,10.069
		c0,1.795,0.591,2.689,1.774,2.689c0.989,0,2.049-0.656,3.176-1.972c1.125-1.318,2.03-3.348,2.718-6.095
		c1.297,1.373,2.079,2.46,2.347,3.261c-1.986,6.638-5.494,9.955-10.527,9.955c-2.368,0-4.12-0.724-5.264-2.175
		C66.888,41.769,66.316,40.242,66.316,38.64z"/>
	<path fill="#FFFFFF" d="M95.065,29.487c1.164-1.41,1.746-2.775,1.746-4.091c0-1.316-0.354-2.212-1.06-2.689
		c-0.705-0.478-1.478-0.715-2.317-0.715c-1.793,0-3.367,1.001-4.721,3.003c-1.352,2.002-2.03,4.386-2.03,7.152
		s0.659,4.826,1.975,6.179c1.316,1.355,2.947,2.032,4.891,2.032c2.861,0,5.608-0.992,8.239-2.976
		c2.633-1.984,4.767-4.577,6.409-7.782c0.838,0.801,1.602,1.795,2.288,2.976c-1.26,2.861-3.49,5.665-6.696,8.412
		c-1.602,1.337-3.499,2.424-5.692,3.261c-2.193,0.838-4.453,1.257-6.78,1.257c-3.816,0-6.829-1.161-9.04-3.49
		c-2.365-2.517-3.548-5.738-3.548-9.669c0-3.927,1.478-7.362,4.435-10.3c2.955-2.936,6.493-4.405,10.612-4.405
		c2.938,0,5.323,0.64,7.152,1.916c1.832,1.278,2.766,3.003,2.805,5.177c0,2.938-1.173,5.323-3.52,7.152
		c-2.344,1.832-5.56,3.111-9.641,3.835l-0.801-3.376C92.139,31.852,93.901,30.899,95.065,29.487z"/>
	<path fill="#FFFFFF" d="M122.099,38.754l1.373-12.758c0-1.029-0.268-1.888-0.801-2.575c-0.536-0.687-1.422-1.029-2.661-1.029
		c-1.238,0-2.288,0.543-3.148,1.63c-0.857,1.087-1.402,2.452-1.63,4.091c-1.373,10.454-2.097,16.136-2.175,17.051h-7.725
		l3.148-26.948c1.602-0.419,2.822-0.63,3.662-0.63c2.554,0,3.891,0.936,4.004,2.805c1.869-1.832,4.111-2.747,6.723-2.747
		c2.612,0,4.663,0.65,6.151,1.946c1.487,1.297,2.23,2.936,2.23,4.919c0,0.536-0.114,1.545-0.342,3.034
		c-0.878,5.798-1.316,9.172-1.316,10.128c0,1.753,0.589,2.631,1.772,2.631c2.593,0,4.558-2.708,5.895-8.125
		c1.297,1.373,2.079,2.46,2.344,3.261c-2.02,6.715-5.53,10.069-10.527,10.069c-2.365,0-4.119-0.724-5.264-2.172
		C122.672,41.884,122.099,40.358,122.099,38.754z"/>
	<path fill="#FFFFFF" d="M165.411,8.089c-0.61-0.268-1.211-0.401-1.803-0.401c-0.592,0-1.164,0.363-1.716,1.087
		c-0.554,0.724-0.927,1.774-1.115,3.145l-2.976,21.228c-0.536,3.853-1.86,6.886-3.976,9.098c-2.119,2.212-4.758,3.317-7.925,3.317
		s-5.617-0.887-7.352-2.661c-1.737-1.774-2.602-3.891-2.602-6.351c0-2.459,0.847-4.547,2.545-6.264
		c1.697-1.716,3.843-2.575,6.437-2.575c1.602,0,2.861,0.114,3.776,0.345l-0.287,3.49c-0.65-0.152-1.651-0.229-3.003-0.229
		c-1.355,0-2.556,0.456-3.604,1.371c-1.05,0.917-1.574,2.061-1.574,3.434s0.379,2.43,1.144,3.176
		c0.763,0.743,1.678,1.115,2.747,1.115c3.203,0,5.073-2.363,5.607-7.094c1.031-9.46,1.774-15.849,2.233-19.168
		c-2.288,0.801-4.311,1.202-6.065,1.202c-2.785,0-4.913-0.647-6.38-1.946c-1.469-1.294-2.204-2.994-2.204-5.091
		s0.755-3.749,2.261-4.95s3.404-1.803,5.694-1.803c1.409,0,3.442,0.44,6.092,1.316c2.65,0.878,4.7,1.318,6.151,1.318
		c2.593,0,4.767-0.668,6.522-2.004c0.954,1.337,1.432,2.919,1.432,4.75C165.47,7.325,165.449,7.707,165.411,8.089z M142.982,9.863
		c0,0.57,0.316,1.066,0.946,1.488c0.628,0.419,1.583,0.628,2.861,0.628s2.945-0.573,5.005-1.716
		c-1.487-0.345-3.012-0.736-4.577-1.173s-2.498-0.659-2.803-0.659C143.459,8.431,142.982,8.909,142.982,9.863z"/>
	<path fill="#FFFFFF" d="M179.429,38.754l1.373-12.758c0-1.029-0.268-1.888-0.801-2.575c-0.536-0.687-1.422-1.029-2.661-1.029
		c-1.238,0-2.288,0.543-3.148,1.63c-0.857,1.087-1.402,2.452-1.63,4.091c-1.373,10.454-2.097,16.136-2.175,17.051h-7.725
		l3.148-26.948c1.602-0.419,2.822-0.63,3.662-0.63c2.554,0,3.891,0.936,4.004,2.805c1.869-1.832,4.111-2.747,6.723-2.747
		c2.612,0,4.663,0.65,6.151,1.946c1.487,1.297,2.23,2.936,2.23,4.919c0,0.536-0.114,1.545-0.342,3.034
		c-0.878,5.798-1.316,9.172-1.316,10.128c0,1.753,0.589,2.631,1.772,2.631c2.593,0,4.558-2.708,5.895-8.125
		c1.297,1.373,2.079,2.46,2.344,3.261c-2.021,6.715-5.53,10.069-10.527,10.069c-2.365,0-4.119-0.724-5.264-2.172
		C180.002,41.884,179.429,40.358,179.429,38.754z"/>
</g>
</svg>
