<?xml version="1.0" encoding="utf-8"?>
<!-- Generator: Adobe Illustrator 17.0.0, SVG Export Plug-In . SVG Version: 6.00 Build 0)  -->
<!DOCTYPE svg PUBLIC "-//W3C//DTD SVG 1.1//EN" "http://www.w3.org/Graphics/SVG/1.1/DTD/svg11.dtd">
<svg version="1.1" id="Layer_1" xmlns="http://www.w3.org/2000/svg" xmlns:xlink="http://www.w3.org/1999/xlink" x="0px" y="0px"
	 width="332px" height="92.727px" viewBox="0 0 332 92.727" enable-background="new 0 0 332 92.727" xml:space="preserve">
<g>
	<path fill="#8C0327" d="M57.418,15.482l-0.092,1.22C54.944,35,53.38,46.277,52.626,50.537c-1.254,7.017-1.878,12.355-1.878,16.022
		c0,3.663,1.564,5.499,4.696,5.499c2.631,0,4.983-1.897,7.051-5.686c2.065-3.79,3.633-8.504,4.696-14.145
		c2.195-11.778,3.289-21.957,3.289-30.542c0-4.007-0.344-7.487-1.032-10.432c2.505-1.503,5.514-2.256,9.021-2.256
		c3.51,0,5.266,2.069,5.266,6.202c0,6.455-1.006,16.259-3.009,29.414c-1.63,10.967-3.887,19.017-6.766,24.152
		c-1.315,2.195-2.818,4.294-4.512,6.298c-3.51,4.073-8.409,6.107-14.707,6.107s-10.791-2.692-13.487-8.08
		c-3.445,5.388-8.677,8.08-15.693,8.08c-4.512,0-8.004-1.296-10.478-3.897c-2.478-2.6-3.713-6.065-3.713-10.386
		c0-0.566,0.061-1.411,0.187-2.539l3.48-26.5C8.33,33.023,4.98,27.604,4.98,21.589c0-3.82,1.315-6.86,3.946-9.116
		c2.631-2.252,5.828-3.38,9.587-3.38c8.206,0,12.309,4.073,12.309,12.218c0,0.126-0.015,0.279-0.046,0.467
		c-0.031,0.191-0.061,0.489-0.092,0.895c-0.034,0.409-0.096,0.88-0.191,1.411c-0.092,0.532-0.218,1.331-0.375,2.394
		c-0.157,1.067-0.329,2.241-0.516,3.526c-0.187,1.285-0.44,2.99-0.753,5.12c-0.314,2.13-0.642,4.436-0.987,6.91
		c-0.344,2.474-0.769,5.495-1.27,9.067s-0.937,6.612-1.315,9.116c-0.375,2.505-0.562,4.325-0.562,5.449
		c0,4.199,1.629,6.298,4.887,6.298c4.512,0,7.296-4.103,8.363-12.309l6.015-47.459c2.069-0.941,4.543-1.411,7.426-1.411
		C55.414,10.783,57.418,12.351,57.418,15.482z M14.846,16.611c-1.189,0-2.065,0.44-2.631,1.315
		c-0.562,0.876-0.845,1.878-0.845,3.006c0,2.822,1.568,5.732,4.7,8.742l0.47-3.759c0.249-2.069,0.39-4.138,0.421-6.202
		C16.995,17.643,16.287,16.611,14.846,16.611z"/>
	<path fill="#8C0327" d="M111.454,69.893l2.256-20.768c0-1.69-0.44-3.101-1.315-4.229c-0.88-1.128-2.287-1.69-4.229-1.69
		c-1.943,0-3.587,0.769-4.933,2.302c-1.35,1.537-2.336,3.556-2.96,6.061c-0.44,3.572-1.097,8.787-1.973,15.648
		c-0.88,6.86-1.442,11.323-1.694,13.391H84.109c4.508-38.404,7.235-61.994,8.176-70.766c1.315-0.501,3.101-0.749,5.357-0.749
		c4.887,0,7.331,1.442,7.331,4.321v0.566c-1.067,9.835-2.195,18.481-3.384,25.938c3.319-3.009,7.078-4.512,11.277-4.512
		c4.195,0,7.518,1.067,9.961,3.197c2.443,2.13,3.663,4.822,3.663,8.08c0,0.88-0.187,2.509-0.562,4.887
		c-1.442,9.399-2.161,14.913-2.161,16.539c0,2.948,0.971,4.417,2.914,4.417c1.625,0,3.365-1.078,5.216-3.239
		c1.847-2.164,3.334-5.499,4.463-10.011c2.13,2.256,3.415,4.042,3.855,5.357c-3.262,10.902-9.025,16.351-17.292,16.351
		c-3.889,0-6.768-1.189-8.646-3.572C112.394,75.033,111.454,72.524,111.454,69.893z"/>
	<path fill="#8C0327" d="M158.676,54.858c1.912-2.317,2.868-4.558,2.868-6.719s-0.581-3.633-1.74-4.417
		c-1.159-0.784-2.428-1.174-3.805-1.174c-2.944,0-5.529,1.644-7.755,4.933c-2.222,3.289-3.334,7.204-3.334,11.747
		s1.082,7.927,3.243,10.149c2.161,2.226,4.841,3.338,8.034,3.338c4.7,0,9.212-1.629,13.533-4.887
		c4.325-3.258,7.831-7.518,10.527-12.783c1.377,1.315,2.631,2.948,3.759,4.887c-2.069,4.7-5.732,9.304-10.998,13.816
		c-2.631,2.195-5.747,3.981-9.35,5.357c-3.602,1.377-7.315,2.065-11.135,2.065c-6.267,0-11.216-1.908-14.848-5.732
		c-3.885-4.134-5.828-9.426-5.828-15.881c0-6.451,2.428-12.091,7.285-16.917c4.853-4.822,10.665-7.235,17.43-7.235
		c4.826,0,8.742,1.052,11.747,3.147c3.009,2.099,4.543,4.933,4.608,8.504c0,4.826-1.927,8.742-5.782,11.747
		c-3.851,3.009-9.132,5.109-15.835,6.298l-1.315-5.545C153.869,58.743,156.764,57.179,158.676,54.858z"/>
	<path fill="#8C0327" d="M203.079,70.081l2.256-20.955c0-1.69-0.44-3.101-1.315-4.229c-0.88-1.128-2.336-1.69-4.371-1.69
		c-2.034,0-3.759,0.891-5.17,2.677c-1.407,1.786-2.302,4.027-2.677,6.719c-2.256,17.17-3.445,26.504-3.572,28.007h-12.688
		l5.17-44.262c2.631-0.688,4.635-1.036,6.015-1.036c4.195,0,6.39,1.537,6.577,4.608c3.071-3.009,6.753-4.512,11.044-4.512
		c4.291,0,7.659,1.067,10.103,3.197c2.443,2.13,3.663,4.822,3.663,8.08c0,0.88-0.187,2.539-0.562,4.983
		c-1.442,9.522-2.161,15.066-2.161,16.634c0,2.879,0.967,4.321,2.91,4.321c4.26,0,7.487-4.447,9.682-13.346
		c2.13,2.256,3.415,4.042,3.851,5.357c-3.319,11.028-9.082,16.539-17.292,16.539c-3.885,0-6.765-1.189-8.646-3.568
		C204.02,75.22,203.079,72.715,203.079,70.081z"/>
	<path fill="#8C0327" d="M274.22,19.712c-1.002-0.44-1.988-0.658-2.96-0.658s-1.912,0.597-2.818,1.786
		c-0.91,1.189-1.522,2.914-1.832,5.166l-4.887,34.867c-0.88,6.329-3.055,11.311-6.531,14.944c-3.48,3.633-7.816,5.449-13.017,5.449
		c-5.201,0-9.227-1.457-12.076-4.371c-2.853-2.914-4.275-6.39-4.275-10.432c0-4.038,1.392-7.468,4.18-10.29
		c2.788-2.818,6.313-4.229,10.573-4.229c2.631,0,4.7,0.187,6.202,0.566l-0.47,5.732c-1.067-0.249-2.711-0.375-4.933-0.375
		c-2.226,0-4.199,0.749-5.919,2.252c-1.725,1.507-2.585,3.384-2.585,5.64s0.623,3.992,1.878,5.216
		c1.254,1.22,2.757,1.832,4.512,1.832c5.262,0,8.332-3.881,9.208-11.652c1.694-15.537,2.914-26.033,3.667-31.483
		c-3.759,1.315-7.082,1.973-9.961,1.973c-4.573,0-8.069-1.063-10.478-3.197c-2.413-2.126-3.621-4.918-3.621-8.363
		s1.239-6.157,3.713-8.13s5.591-2.96,9.353-2.96c2.313,0,5.652,0.723,10.007,2.161c4.352,1.442,7.721,2.164,10.103,2.164
		c4.26,0,7.831-1.097,10.711-3.292c1.568,2.195,2.352,4.795,2.352,7.801C274.316,18.457,274.281,19.085,274.22,19.712z
		 M237.38,22.626c0,0.937,0.52,1.751,1.553,2.444c1.032,0.688,2.6,1.032,4.7,1.032c2.1,0,4.837-0.941,8.221-2.818
		c-2.443-0.566-4.948-1.208-7.518-1.927s-4.103-1.082-4.604-1.082C238.164,20.274,237.38,21.058,237.38,22.626z"/>
	<path fill="#8C0327" d="M297.244,70.081l2.256-20.955c0-1.69-0.44-3.101-1.315-4.229c-0.88-1.128-2.336-1.69-4.371-1.69
		c-2.034,0-3.759,0.891-5.17,2.677c-1.407,1.786-2.302,4.027-2.677,6.719c-2.256,17.17-3.445,26.504-3.572,28.007h-12.688
		l5.17-44.262c2.631-0.688,4.635-1.036,6.015-1.036c4.195,0,6.39,1.537,6.577,4.608c3.071-3.009,6.753-4.512,11.044-4.512
		s7.659,1.067,10.103,3.197c2.443,2.13,3.663,4.822,3.663,8.08c0,0.88-0.187,2.539-0.562,4.983
		c-1.442,9.522-2.161,15.066-2.161,16.634c0,2.879,0.967,4.321,2.91,4.321c4.26,0,7.487-4.447,9.682-13.346
		c2.13,2.256,3.415,4.042,3.851,5.357c-3.319,11.028-9.082,16.539-17.292,16.539c-3.885,0-6.765-1.189-8.646-3.568
		C298.185,75.22,297.244,72.715,297.244,70.081z"/>
</g>
</svg>
