<?xml version="1.0" encoding="utf-8"?>
<!-- Generator: Adobe Illustrator 17.0.0, SVG Export Plug-In . SVG Version: 6.00 Build 0)  -->
<!DOCTYPE svg PUBLIC "-//W3C//DTD SVG 1.1//EN" "http://www.w3.org/Graphics/SVG/1.1/DTD/svg11.dtd">
<svg version="1.1" id="Layer_1" xmlns="http://www.w3.org/2000/svg" xmlns:xlink="http://www.w3.org/1999/xlink" x="0px" y="0px"
	 width="44px" height="47.9px" viewBox="0 0 44 47.9" enable-background="new 0 0 44 47.9" xml:space="preserve">
<g>
	<path fill="#FFFFFF" d="M11.625,23.956c-0.004,3.189-2.631,5.813-5.816,5.809C2.626,29.761-0.006,27.124,0,23.944
		c0.006-3.185,2.64-5.814,5.821-5.809C9.009,18.14,11.629,20.768,11.625,23.956z"/>
	<path fill="#FFFFFF" d="M22.285,18.135c3.182-0.001,5.816,2.632,5.815,5.815c0,3.183-2.634,5.816-5.816,5.814
		c-3.189-0.001-5.81-2.625-5.809-5.815C16.475,20.759,19.096,18.136,22.285,18.135z"/>
	<path fill="#FFFFFF" d="M32.375,23.965c-0.009-3.187,2.605-5.817,5.795-5.83c3.178-0.013,5.816,2.611,5.83,5.799
		c0.014,3.176-2.616,5.821-5.799,5.83C35.017,29.774,32.384,27.153,32.375,23.965z"/>
</g>
</svg>
