<?xml version="1.0" encoding="utf-8"?>
<!-- Generator: Adobe Illustrator 17.0.0, SVG Export Plug-In . SVG Version: 6.00 Build 0)  -->
<!DOCTYPE svg PUBLIC "-//W3C//DTD SVG 1.1//EN" "http://www.w3.org/Graphics/SVG/1.1/DTD/svg11.dtd">
<svg version="1.1" id="Layer_1" xmlns="http://www.w3.org/2000/svg" xmlns:xlink="http://www.w3.org/1999/xlink" x="0px" y="0px"
	 width="44px" height="47.898px" viewBox="6 3.551 44 47.898" enable-background="new 6 3.551 44 47.898" xml:space="preserve">
<g>
	<path fill="#FFFFFF" d="M45.38,34.076c-1.143,2.223-2.848,4.159-4.33,4.159c-1.431,0-3.152-1.943-4.312-4.171
		c-2.765,1.524-4.64,4.466-4.64,7.846c0,4.944,5.123,6.228,8.952,6.228c3.973,0,8.95-1.284,8.95-6.228
		C50,38.539,48.134,35.602,45.38,34.076z"/>
	<path fill="#FFFFFF" d="M31.864,13.538c0,5.514-5.554,15.261-9.986,15.261c-4.271,0-9.988-9.747-9.988-15.261
		c0-5.516,4.473-9.987,9.989-9.987C27.392,3.551,31.864,8.022,31.864,13.538z"/>
	<path fill="#FFFFFF" d="M47.317,25.167c0,3.461-3.485,9.577-6.267,9.577c-2.681,0-6.269-6.116-6.269-9.577
		c0-3.463,2.806-6.268,6.269-6.268C44.51,18.899,47.317,21.705,47.317,25.167z"/>
	<path fill="#FFFFFF" d="M28.216,42.713c0-4.846,2.689-9.064,6.652-11.248c0,0-2.317-3.299-5.309-4.956
		c-2.026,3.944-5.052,7.377-7.682,7.377c-2.54,0-5.59-3.445-7.647-7.398C9.326,29.187,6,34.407,6,40.403
		c0,8.769,9.088,11.046,15.878,11.046c3.339,0,7.076-0.513,10.085-1.982C29.765,48.095,28.216,45.959,28.216,42.713z"/>
</g>
</svg>
