<?xml version="1.0" encoding="utf-8"?>
<!-- Generator: Adobe Illustrator 17.0.0, SVG Export Plug-In . SVG Version: 6.00 Build 0)  -->
<!DOCTYPE svg PUBLIC "-//W3C//DTD SVG 1.1//EN" "http://www.w3.org/Graphics/SVG/1.1/DTD/svg11.dtd">
<svg version="1.1" id="Layer_1" xmlns="http://www.w3.org/2000/svg" xmlns:xlink="http://www.w3.org/1999/xlink" x="0px" y="0px"
	 width="44px" height="71.865px" viewBox="28 13.79 44 71.865" enable-background="new 28 13.79 44 71.865" xml:space="preserve">
<g>
	<path fill="#B6B6B7" d="M60.646,51.095c-2.809,5.465-7,10.222-10.643,10.222c-3.518,0-7.748-4.775-10.598-10.253
		C32.61,54.811,28,62.042,28,70.349c0,12.151,12.592,15.307,22.002,15.307C59.768,85.656,72,82.499,72,70.349
		C72.001,62.064,67.416,54.845,60.646,51.095z"/>
	<path fill="#B6B6B7" d="M65.406,29.198c0,8.507-8.565,23.539-15.402,23.539c-6.589,0-15.408-15.032-15.408-23.539
		c0-8.511,6.897-15.407,15.408-15.407C58.508,13.79,65.406,20.687,65.406,29.198z"/>
</g>
</svg>
